<svg aria-hidden="true" style="position: absolute; width: 0; height: 0; overflow: hidden;" version="1.1" xmlns="http://www.w3.org/2000/svg" xmlns:xlink="http://www.w3.org/1999/xlink">
<defs>
<symbol id="icon-heart" viewBox="0 0 20 20">
<path d="M17.19 4.155c-1.672-1.534-4.383-1.534-6.055 0l-1.135 1.042-1.136-1.042c-1.672-1.534-4.382-1.534-6.054 0-1.881 1.727-1.881 4.52 0 6.246l7.19 6.599 7.19-6.599c1.88-1.726 1.88-4.52 0-6.246z"></path>
</symbol>
<symbol id="icon-shop" viewBox="0 0 20 20">
<path d="M6.123 7.25l0.791-5.25h-4.114l-1.719 4.5c-0.053 0.16-0.081 0.326-0.081 0.5 0 1.104 1.15 2 2.571 2 1.31 0 2.393-0.764 2.552-1.75zM10 9c1.42 0 2.571-0.896 2.571-2 0-0.041-0.003-0.082-0.005-0.121l-0.509-4.879h-4.114l-0.51 4.875c-0.002 0.041-0.004 0.082-0.004 0.125 0 1.104 1.151 2 2.571 2zM15 10.046v3.954h-10v-3.948c-0.438 0.158-0.92 0.248-1.429 0.248-0.195 0-0.384-0.023-0.571-0.049v6.349c0 0.77 0.629 1.4 1.398 1.4h11.202c0.77 0 1.4-0.631 1.4-1.4v-6.348c-0.188 0.025-0.376 0.049-0.571 0.049-0.506-0.001-0.99-0.093-1.429-0.255zM18.92 6.5l-1.721-4.5h-4.113l0.79 5.242c0.154 0.99 1.237 1.758 2.553 1.758 1.42 0 2.571-0.896 2.571-2 0-0.174-0.028-0.34-0.080-0.5z"></path>
</symbol>
<symbol id="icon-thumbs-up" viewBox="0 0 20 20">
<path d="M13.648 7.362c-0.133-0.355 3.539-3.634 1.398-6.291-0.501-0.621-2.201 2.975-4.615 4.603-1.332 0.898-4.431 2.81-4.431 3.867v6.842c0 1.271 4.914 2.617 8.648 2.617 1.369 0 3.352-8.576 3.352-9.938 0-1.368-4.221-1.344-4.352-1.7zM5 7.457c-0.658 0-3 0.4-3 3.123v4.848c0 2.721 2.342 3.021 3 3.021 0.657 0-1-0.572-1-2.26v-6.373c0-1.768 1.657-2.359 1-2.359z"></path>
</symbol>
</defs>
</svg>
